<svg id="visual" viewBox="0 0 900 450" width="900" height="450" xmlns="http://www.w3.org/2000/svg" xmlns:xlink="http://www.w3.org/1999/xlink" version="1.1"><g stroke-width="1" stroke-linejoin="bevel"><path d="M462 252L424 297L482 388Z" fill="#eff2f6" stroke="#eff2f6"></path><path d="M424 297L422 380L482 388Z" fill="#d9e2ea" stroke="#d9e2ea"></path><path d="M482 388L603 341L462 252Z" fill="#e4eaf0" stroke="#e4eaf0"></path><path d="M603 341L582 243L462 252Z" fill="#fafbfc" stroke="#fafbfc"></path><path d="M582 243L518 203L462 252Z" fill="#dfe6ed" stroke="#dfe6ed"></path><path d="M422 380L464 450L482 388Z" fill="#ffffff" stroke="#ffffff"></path><path d="M482 388L579 450L603 341Z" fill="#e9eef3" stroke="#e9eef3"></path><path d="M582 243L580 193L518 203Z" fill="#e4eaf0" stroke="#e4eaf0"></path><path d="M728 141L580 193L582 243Z" fill="#f4f7f9" stroke="#f4f7f9"></path><path d="M464 450L579 450L482 388Z" fill="#e4eaf0" stroke="#e4eaf0"></path><path d="M422 380L403 450L464 450Z" fill="#e4eaf0" stroke="#e4eaf0"></path><path d="M311 361L403 450L422 380Z" fill="#cad5e2" stroke="#cad5e2"></path><path d="M518 203L408 154L462 252Z" fill="#e4eaf0" stroke="#e4eaf0"></path><path d="M462 252L408 154L424 297Z" fill="#fafbfc" stroke="#fafbfc"></path><path d="M424 297L311 361L422 380Z" fill="#dfe6ed" stroke="#dfe6ed"></path><path d="M487 70L408 154L518 203Z" fill="#eff2f6" stroke="#eff2f6"></path><path d="M291 290L311 361L424 297Z" fill="#e9eef3" stroke="#e9eef3"></path><path d="M408 154L291 290L424 297Z" fill="#e4eaf0" stroke="#e4eaf0"></path><path d="M238 450L308 450L311 361Z" fill="#e9eef3" stroke="#e9eef3"></path><path d="M311 361L308 450L403 450Z" fill="#dfe6ed" stroke="#dfe6ed"></path><path d="M732 362L732 286L603 341Z" fill="#ffffff" stroke="#ffffff"></path><path d="M603 341L732 286L582 243Z" fill="#e9eef3" stroke="#e9eef3"></path><path d="M716 450L732 362L603 341Z" fill="#ffffff" stroke="#ffffff"></path><path d="M487 70L362 112L408 154Z" fill="#e9eef3" stroke="#e9eef3"></path><path d="M408 154L270 196L291 290Z" fill="#dfe6ed" stroke="#dfe6ed"></path><path d="M580 193L487 70L518 203Z" fill="#fafbfc" stroke="#fafbfc"></path><path d="M624 51L487 70L580 193Z" fill="#eff2f6" stroke="#eff2f6"></path><path d="M362 112L270 196L408 154Z" fill="#ffffff" stroke="#ffffff"></path><path d="M177 342L238 450L311 361Z" fill="#cad5e2" stroke="#cad5e2"></path><path d="M579 450L716 450L603 341Z" fill="#d9e2ea" stroke="#d9e2ea"></path><path d="M170 108L239 206L270 196Z" fill="#dfe6ed" stroke="#dfe6ed"></path><path d="M270 196L239 206L291 290Z" fill="#f4f7f9" stroke="#f4f7f9"></path><path d="M177 342L311 361L291 290Z" fill="#cad5e2" stroke="#cad5e2"></path><path d="M732 362L784 309L732 286Z" fill="#e4eaf0" stroke="#e4eaf0"></path><path d="M732 286L728 141L582 243Z" fill="#d9e2ea" stroke="#d9e2ea"></path><path d="M796 380L784 309L732 362Z" fill="#d9e2ea" stroke="#d9e2ea"></path><path d="M784 309L769 219L732 286Z" fill="#dfe6ed" stroke="#dfe6ed"></path><path d="M769 219L728 141L732 286Z" fill="#d9e2ea" stroke="#d9e2ea"></path><path d="M728 141L624 51L580 193Z" fill="#f4f7f9" stroke="#f4f7f9"></path><path d="M239 206L200 237L291 290Z" fill="#d4dde8" stroke="#d4dde8"></path><path d="M716 450L768 450L732 362Z" fill="#d9e2ea" stroke="#d9e2ea"></path><path d="M768 450L796 380L732 362Z" fill="#fafbfc" stroke="#fafbfc"></path><path d="M784 309L900 241L769 219Z" fill="#e9eef3" stroke="#e9eef3"></path><path d="M200 237L177 342L291 290Z" fill="#e4eaf0" stroke="#e4eaf0"></path><path d="M487 70L385 0L362 112Z" fill="#e9eef3" stroke="#e9eef3"></path><path d="M362 112L260 68L270 196Z" fill="#e9eef3" stroke="#e9eef3"></path><path d="M239 206L170 108L200 237Z" fill="#dfe6ed" stroke="#dfe6ed"></path><path d="M593 0L462 0L487 70Z" fill="#e4eaf0" stroke="#e4eaf0"></path><path d="M728 141L696 66L624 51Z" fill="#eff2f6" stroke="#eff2f6"></path><path d="M624 51L593 0L487 70Z" fill="#e4eaf0" stroke="#e4eaf0"></path><path d="M688 0L696 66L771 0Z" fill="#d9e2ea" stroke="#d9e2ea"></path><path d="M688 0L593 0L624 51Z" fill="#cfd9e5" stroke="#cfd9e5"></path><path d="M462 0L385 0L487 70Z" fill="#f4f7f9" stroke="#f4f7f9"></path><path d="M385 0L260 68L362 112Z" fill="#dfe6ed" stroke="#dfe6ed"></path><path d="M815 62L696 66L728 141Z" fill="#cad5e2" stroke="#cad5e2"></path><path d="M696 66L688 0L624 51Z" fill="#cfd9e5" stroke="#cfd9e5"></path><path d="M260 68L170 108L270 196Z" fill="#eff2f6" stroke="#eff2f6"></path><path d="M200 237L74 251L177 342Z" fill="#ffffff" stroke="#ffffff"></path><path d="M237 0L170 108L260 68Z" fill="#cfd9e5" stroke="#cfd9e5"></path><path d="M385 0L268 0L260 68Z" fill="#e9eef3" stroke="#e9eef3"></path><path d="M268 0L237 0L260 68Z" fill="#ffffff" stroke="#ffffff"></path><path d="M900 450L900 341L796 380Z" fill="#cfd9e5" stroke="#cfd9e5"></path><path d="M796 380L900 341L784 309Z" fill="#dfe6ed" stroke="#dfe6ed"></path><path d="M769 219L815 62L728 141Z" fill="#cad5e2" stroke="#cad5e2"></path><path d="M73 347L107 450L177 342Z" fill="#ffffff" stroke="#ffffff"></path><path d="M177 342L107 450L238 450Z" fill="#e4eaf0" stroke="#e4eaf0"></path><path d="M900 167L815 62L769 219Z" fill="#e9eef3" stroke="#e9eef3"></path><path d="M900 341L900 241L784 309Z" fill="#d4dde8" stroke="#d4dde8"></path><path d="M100 128L93 204L170 108Z" fill="#eff2f6" stroke="#eff2f6"></path><path d="M170 108L93 204L200 237Z" fill="#d9e2ea" stroke="#d9e2ea"></path><path d="M74 251L73 347L177 342Z" fill="#fafbfc" stroke="#fafbfc"></path><path d="M815 62L771 0L696 66Z" fill="#dfe6ed" stroke="#dfe6ed"></path><path d="M93 204L74 251L200 237Z" fill="#e9eef3" stroke="#e9eef3"></path><path d="M768 450L900 450L796 380Z" fill="#fafbfc" stroke="#fafbfc"></path><path d="M900 241L900 167L769 219Z" fill="#e4eaf0" stroke="#e4eaf0"></path><path d="M815 62L900 0L771 0Z" fill="#d9e2ea" stroke="#d9e2ea"></path><path d="M115 0L100 128L170 108Z" fill="#fafbfc" stroke="#fafbfc"></path><path d="M0 271L0 321L74 251Z" fill="#eff2f6" stroke="#eff2f6"></path><path d="M900 167L900 107L815 62Z" fill="#e9eef3" stroke="#e9eef3"></path><path d="M74 251L0 321L73 347Z" fill="#e4eaf0" stroke="#e4eaf0"></path><path d="M73 347L0 450L107 450Z" fill="#e4eaf0" stroke="#e4eaf0"></path><path d="M0 271L74 251L0 187Z" fill="#e4eaf0" stroke="#e4eaf0"></path><path d="M237 0L115 0L170 108Z" fill="#e9eef3" stroke="#e9eef3"></path><path d="M0 187L74 251L93 204Z" fill="#d9e2ea" stroke="#d9e2ea"></path><path d="M0 187L93 204L100 128Z" fill="#cfd9e5" stroke="#cfd9e5"></path><path d="M0 125L0 187L100 128Z" fill="#d4dde8" stroke="#d4dde8"></path><path d="M0 321L0 450L73 347Z" fill="#f4f7f9" stroke="#f4f7f9"></path><path d="M900 107L900 0L815 62Z" fill="#e9eef3" stroke="#e9eef3"></path><path d="M0 0L0 125L100 128Z" fill="#eff2f6" stroke="#eff2f6"></path><path d="M115 0L0 0L100 128Z" fill="#d9e2ea" stroke="#d9e2ea"></path></g></svg>