<svg xmlns="http://www.w3.org/2000/svg" version="1.1" xmlns:xlink="http://www.w3.org/1999/xlink" xmlns:svgjs="http://svgjs.dev/svgjs" width="1440" height="250" preserveAspectRatio="none" viewBox="0 0 1440 250"><g mask="url(&quot;#SvgjsMask1012&quot;)" fill="none"><path d="M3 250L253 0L521.5 0L271.5 250z" fill="url(&quot;#SvgjsLinearGradient1013&quot;)"></path><path d="M260.6 250L510.6 0L548.1 0L298.1 250z" fill="url(&quot;#SvgjsLinearGradient1013&quot;)"></path><path d="M519.2 250L769.2 0L916.2 0L666.2 250z" fill="url(&quot;#SvgjsLinearGradient1013&quot;)"></path><path d="M713.8000000000001 250L963.8000000000001 0L1134.8000000000002 0L884.8000000000001 250z" fill="url(&quot;#SvgjsLinearGradient1013&quot;)"></path><path d="M1410 250L1160 0L911 0L1161 250z" fill="url(&quot;#SvgjsLinearGradient1014&quot;)"></path><path d="M1174.4 250L924.4000000000001 0L841.9000000000001 0L1091.9 250z" fill="url(&quot;#SvgjsLinearGradient1014&quot;)"></path><path d="M961.8 250L711.8 0L561.8 0L811.8 250z" fill="url(&quot;#SvgjsLinearGradient1014&quot;)"></path><path d="M681.1999999999999 250L431.19999999999993 0L317.19999999999993 0L567.1999999999999 250z" fill="url(&quot;#SvgjsLinearGradient1014&quot;)"></path><path d="M1278.6884184819098 250L1440 88.68841848190974L1440 250z" fill="url(&quot;#SvgjsLinearGradient1013&quot;)"></path><path d="M0 250L161.31158151809026 250L 0 88.68841848190974z" fill="url(&quot;#SvgjsLinearGradient1014&quot;)"></path></g><defs><mask id="SvgjsMask1012"><rect width="1440" height="250" fill="#ffffff"></rect></mask><linearGradient x1="0%" y1="100%" x2="100%" y2="0%" id="SvgjsLinearGradient1013"><stop stop-color="rgba(15, 70, 185, 0.2)" offset="0"></stop><stop stop-opacity="0" stop-color="rgba(15, 70, 185, 0.2)" offset="0.66"></stop></linearGradient><linearGradient x1="100%" y1="100%" x2="0%" y2="0%" id="SvgjsLinearGradient1014"><stop stop-color="rgba(15, 70, 185, 0.2)" offset="0"></stop><stop stop-opacity="0" stop-color="rgba(15, 70, 185, 0.2)" offset="0.66"></stop></linearGradient></defs></svg>