<svg xmlns="http://www.w3.org/2000/svg" version="1.1" xmlns:xlink="http://www.w3.org/1999/xlink" xmlns:svgjs="http://svgjs.dev/svgjs" width="1440" height="560" preserveAspectRatio="none" viewBox="0 0 1440 560"><g mask="url(&quot;#SvgjsMask1006&quot;)" fill="none"><path d="M-41.96 372.21L-41.96 372.21" stroke="rgba(202, 213, 226, 1)" stroke-width="1.5"></path><path d="M-41.96 372.21L46.07 378.17" stroke="rgba(202, 213, 226, 1)" stroke-width="1.5"></path><path d="M-41.96 372.21L69.52 522.27" stroke="rgba(202, 213, 226, 1)" stroke-width="1.5"></path><path d="M-94.01 553.65L-94.01 553.65" stroke="rgba(202, 213, 226, 1)" stroke-width="1.5"></path><path d="M-94.01 553.65L-52.81 671.53" stroke="rgba(202, 213, 226, 1)" stroke-width="1.5"></path><path d="M-94.01 553.65L69.52 522.27" stroke="rgba(202, 213, 226, 1)" stroke-width="1.5"></path><path d="M-52.81 671.53L-52.81 671.53" stroke="rgba(202, 213, 226, 1)" stroke-width="1.5"></path><path d="M-52.81 671.53L68.3 678.66" stroke="rgba(202, 213, 226, 1)" stroke-width="1.5"></path><path d="M46.07 378.17L46.07 378.17" stroke="rgba(202, 213, 226, 1)" stroke-width="1.5"></path><path d="M69.52 522.27L69.52 522.27" stroke="rgba(202, 213, 226, 1)" stroke-width="1.5"></path><path d="M69.52 522.27L46.07 378.17" stroke="rgba(202, 213, 226, 1)" stroke-width="1.5"></path><path d="M69.52 522.27L68.3 678.66" stroke="rgba(202, 213, 226, 1)" stroke-width="1.5"></path><path d="M68.3 678.66L68.3 678.66" stroke="rgba(202, 213, 226, 1)" stroke-width="1.5"></path><path d="M68.3 678.66L189.84 679.27" stroke="rgba(202, 213, 226, 1)" stroke-width="1.5"></path><path d="M68.3 678.66L-94.01 553.65" stroke="rgba(202, 213, 226, 1)" stroke-width="1.5"></path><path d="M237.3 351.08L237.3 351.08" stroke="rgba(202, 213, 226, 1)" stroke-width="1.5"></path><path d="M237.3 351.08L404.68 364.62" stroke="rgba(202, 213, 226, 1)" stroke-width="1.5"></path><path d="M237.3 351.08L46.07 378.17" stroke="rgba(202, 213, 226, 1)" stroke-width="1.5"></path><path d="M237.3 351.08L69.52 522.27" stroke="rgba(202, 213, 226, 1)" stroke-width="1.5"></path><path d="M237.3 351.08L395.22 544.25" stroke="rgba(202, 213, 226, 1)" stroke-width="1.5"></path><path d="M237.3 351.08L501.92 357.92" stroke="rgba(202, 213, 226, 1)" stroke-width="1.5"></path><path d="M189.84 679.27L189.84 679.27" stroke="rgba(202, 213, 226, 1)" stroke-width="1.5"></path><path d="M189.84 679.27L348.86 663.94" stroke="rgba(202, 213, 226, 1)" stroke-width="1.5"></path><path d="M189.84 679.27L69.52 522.27" stroke="rgba(202, 213, 226, 1)" stroke-width="1.5"></path><path d="M189.84 679.27L-52.81 671.53" stroke="rgba(202, 213, 226, 1)" stroke-width="1.5"></path><path d="M189.84 679.27L395.22 544.25" stroke="rgba(202, 213, 226, 1)" stroke-width="1.5"></path><path d="M189.84 679.27L-94.01 553.65" stroke="rgba(202, 213, 226, 1)" stroke-width="1.5"></path><path d="M404.68 364.62L404.68 364.62" stroke="rgba(202, 213, 226, 1)" stroke-width="1.5"></path><path d="M404.68 364.62L501.92 357.92" stroke="rgba(202, 213, 226, 1)" stroke-width="1.5"></path><path d="M404.68 364.62L395.22 544.25" stroke="rgba(202, 213, 226, 1)" stroke-width="1.5"></path><path d="M404.68 364.62L494.22 534.37" stroke="rgba(202, 213, 226, 1)" stroke-width="1.5"></path><path d="M404.68 364.62L644.04 254.11" stroke="rgba(202, 213, 226, 1)" stroke-width="1.5"></path><path d="M395.22 544.25L395.22 544.25" stroke="rgba(202, 213, 226, 1)" stroke-width="1.5"></path><path d="M395.22 544.25L494.22 534.37" stroke="rgba(202, 213, 226, 1)" stroke-width="1.5"></path><path d="M395.22 544.25L348.86 663.94" stroke="rgba(202, 213, 226, 1)" stroke-width="1.5"></path><path d="M395.22 544.25L501.92 357.92" stroke="rgba(202, 213, 226, 1)" stroke-width="1.5"></path><path d="M348.86 663.94L348.86 663.94" stroke="rgba(202, 213, 226, 1)" stroke-width="1.5"></path><path d="M348.86 663.94L494.22 534.37" stroke="rgba(202, 213, 226, 1)" stroke-width="1.5"></path><path d="M501.92 357.92L501.92 357.92" stroke="rgba(202, 213, 226, 1)" stroke-width="1.5"></path><path d="M501.92 357.92L644.04 254.11" stroke="rgba(202, 213, 226, 1)" stroke-width="1.5"></path><path d="M501.92 357.92L494.22 534.37" stroke="rgba(202, 213, 226, 1)" stroke-width="1.5"></path><path d="M501.92 357.92L699.92 373.21" stroke="rgba(202, 213, 226, 1)" stroke-width="1.5"></path><path d="M494.22 534.37L494.22 534.37" stroke="rgba(202, 213, 226, 1)" stroke-width="1.5"></path><path d="M494.22 534.37L678.6 528.83" stroke="rgba(202, 213, 226, 1)" stroke-width="1.5"></path><path d="M644.04 254.11L644.04 254.11" stroke="rgba(202, 213, 226, 1)" stroke-width="1.5"></path><path d="M644.04 254.11L699.92 373.21" stroke="rgba(202, 213, 226, 1)" stroke-width="1.5"></path><path d="M644.04 254.11L817.18 225.97" stroke="rgba(202, 213, 226, 1)" stroke-width="1.5"></path><path d="M644.04 254.11L799.42 367.04" stroke="rgba(202, 213, 226, 1)" stroke-width="1.5"></path><path d="M644.04 254.11L678.6 528.83" stroke="rgba(202, 213, 226, 1)" stroke-width="1.5"></path><path d="M699.92 373.21L699.92 373.21" stroke="rgba(202, 213, 226, 1)" stroke-width="1.5"></path><path d="M699.92 373.21L799.42 367.04" stroke="rgba(202, 213, 226, 1)" stroke-width="1.5"></path><path d="M699.92 373.21L678.6 528.83" stroke="rgba(202, 213, 226, 1)" stroke-width="1.5"></path><path d="M699.92 373.21L817.18 225.97" stroke="rgba(202, 213, 226, 1)" stroke-width="1.5"></path><path d="M678.6 528.83L678.6 528.83" stroke="rgba(202, 213, 226, 1)" stroke-width="1.5"></path><path d="M678.6 528.83L694.9 691.03" stroke="rgba(202, 213, 226, 1)" stroke-width="1.5"></path><path d="M694.9 691.03L694.9 691.03" stroke="rgba(202, 213, 226, 1)" stroke-width="1.5"></path><path d="M694.9 691.03L813.92 693.62" stroke="rgba(202, 213, 226, 1)" stroke-width="1.5"></path><path d="M694.9 691.03L940.62 638.15" stroke="rgba(202, 213, 226, 1)" stroke-width="1.5"></path><path d="M694.9 691.03L494.22 534.37" stroke="rgba(202, 213, 226, 1)" stroke-width="1.5"></path><path d="M850.26 69.03L850.26 69.03" stroke="rgba(202, 213, 226, 1)" stroke-width="1.5"></path><path d="M850.26 69.03L999.92 55.28" stroke="rgba(202, 213, 226, 1)" stroke-width="1.5"></path><path d="M850.26 69.03L954.93 -48.52" stroke="rgba(202, 213, 226, 1)" stroke-width="1.5"></path><path d="M850.26 69.03L817.18 225.97" stroke="rgba(202, 213, 226, 1)" stroke-width="1.5"></path><path d="M850.26 69.03L974.22 216.17" stroke="rgba(202, 213, 226, 1)" stroke-width="1.5"></path><path d="M850.26 69.03L1108.59 74.91" stroke="rgba(202, 213, 226, 1)" stroke-width="1.5"></path><path d="M850.26 69.03L644.04 254.11" stroke="rgba(202, 213, 226, 1)" stroke-width="1.5"></path><path d="M817.18 225.97L817.18 225.97" stroke="rgba(202, 213, 226, 1)" stroke-width="1.5"></path><path d="M817.18 225.97L799.42 367.04" stroke="rgba(202, 213, 226, 1)" stroke-width="1.5"></path><path d="M817.18 225.97L974.22 216.17" stroke="rgba(202, 213, 226, 1)" stroke-width="1.5"></path><path d="M799.42 367.04L799.42 367.04" stroke="rgba(202, 213, 226, 1)" stroke-width="1.5"></path><path d="M799.42 367.04L990.4 353.33" stroke="rgba(202, 213, 226, 1)" stroke-width="1.5"></path><path d="M813.92 693.62L813.92 693.62" stroke="rgba(202, 213, 226, 1)" stroke-width="1.5"></path><path d="M813.92 693.62L940.62 638.15" stroke="rgba(202, 213, 226, 1)" stroke-width="1.5"></path><path d="M813.92 693.62L678.6 528.83" stroke="rgba(202, 213, 226, 1)" stroke-width="1.5"></path><path d="M813.92 693.62L967.79 490.51" stroke="rgba(202, 213, 226, 1)" stroke-width="1.5"></path><path d="M813.92 693.62L799.42 367.04" stroke="rgba(202, 213, 226, 1)" stroke-width="1.5"></path><path d="M954.93 -48.52L954.93 -48.52" stroke="rgba(202, 213, 226, 1)" stroke-width="1.5"></path><path d="M954.93 -48.52L999.92 55.28" stroke="rgba(202, 213, 226, 1)" stroke-width="1.5"></path><path d="M954.93 -48.52L1121.31 -81.8" stroke="rgba(202, 213, 226, 1)" stroke-width="1.5"></path><path d="M999.92 55.28L999.92 55.28" stroke="rgba(202, 213, 226, 1)" stroke-width="1.5"></path><path d="M999.92 55.28L1108.59 74.91" stroke="rgba(202, 213, 226, 1)" stroke-width="1.5"></path><path d="M974.22 216.17L974.22 216.17" stroke="rgba(202, 213, 226, 1)" stroke-width="1.5"></path><path d="M974.22 216.17L990.4 353.33" stroke="rgba(202, 213, 226, 1)" stroke-width="1.5"></path><path d="M974.22 216.17L999.92 55.28" stroke="rgba(202, 213, 226, 1)" stroke-width="1.5"></path><path d="M974.22 216.17L1141.5 205.32" stroke="rgba(202, 213, 226, 1)" stroke-width="1.5"></path><path d="M990.4 353.33L990.4 353.33" stroke="rgba(202, 213, 226, 1)" stroke-width="1.5"></path><path d="M990.4 353.33L1128.38 347.27" stroke="rgba(202, 213, 226, 1)" stroke-width="1.5"></path><path d="M990.4 353.33L967.79 490.51" stroke="rgba(202, 213, 226, 1)" stroke-width="1.5"></path><path d="M990.4 353.33L1111.18 515.65" stroke="rgba(202, 213, 226, 1)" stroke-width="1.5"></path><path d="M967.79 490.51L967.79 490.51" stroke="rgba(202, 213, 226, 1)" stroke-width="1.5"></path><path d="M967.79 490.51L1111.18 515.65" stroke="rgba(202, 213, 226, 1)" stroke-width="1.5"></path><path d="M940.62 638.15L940.62 638.15" stroke="rgba(202, 213, 226, 1)" stroke-width="1.5"></path><path d="M940.62 638.15L967.79 490.51" stroke="rgba(202, 213, 226, 1)" stroke-width="1.5"></path><path d="M1121.31 -81.8L1121.31 -81.8" stroke="rgba(202, 213, 226, 1)" stroke-width="1.5"></path><path d="M1121.31 -81.8L1108.59 74.91" stroke="rgba(202, 213, 226, 1)" stroke-width="1.5"></path><path d="M1121.31 -81.8L999.92 55.28" stroke="rgba(202, 213, 226, 1)" stroke-width="1.5"></path><path d="M1121.31 -81.8L1292.81 94.15" stroke="rgba(202, 213, 226, 1)" stroke-width="1.5"></path><path d="M1121.31 -81.8L1141.5 205.32" stroke="rgba(202, 213, 226, 1)" stroke-width="1.5"></path><path d="M1121.31 -81.8L850.26 69.03" stroke="rgba(202, 213, 226, 1)" stroke-width="1.5"></path><path d="M1108.59 74.91L1108.59 74.91" stroke="rgba(202, 213, 226, 1)" stroke-width="1.5"></path><path d="M1108.59 74.91L1141.5 205.32" stroke="rgba(202, 213, 226, 1)" stroke-width="1.5"></path><path d="M1108.59 74.91L1292.81 94.15" stroke="rgba(202, 213, 226, 1)" stroke-width="1.5"></path><path d="M1141.5 205.32L1141.5 205.32" stroke="rgba(202, 213, 226, 1)" stroke-width="1.5"></path><path d="M1141.5 205.32L1264.64 258.74" stroke="rgba(202, 213, 226, 1)" stroke-width="1.5"></path><path d="M1141.5 205.32L1128.38 347.27" stroke="rgba(202, 213, 226, 1)" stroke-width="1.5"></path><path d="M1141.5 205.32L1292.81 94.15" stroke="rgba(202, 213, 226, 1)" stroke-width="1.5"></path><path d="M1128.38 347.27L1128.38 347.27" stroke="rgba(202, 213, 226, 1)" stroke-width="1.5"></path><path d="M1128.38 347.27L1258.06 353.5" stroke="rgba(202, 213, 226, 1)" stroke-width="1.5"></path><path d="M1128.38 347.27L1264.64 258.74" stroke="rgba(202, 213, 226, 1)" stroke-width="1.5"></path><path d="M1128.38 347.27L1111.18 515.65" stroke="rgba(202, 213, 226, 1)" stroke-width="1.5"></path><path d="M1111.18 515.65L1111.18 515.65" stroke="rgba(202, 213, 226, 1)" stroke-width="1.5"></path><path d="M1111.18 515.65L1157.79 667.86" stroke="rgba(202, 213, 226, 1)" stroke-width="1.5"></path><path d="M1111.18 515.65L1296.48 524.93" stroke="rgba(202, 213, 226, 1)" stroke-width="1.5"></path><path d="M1157.79 667.86L1157.79 667.86" stroke="rgba(202, 213, 226, 1)" stroke-width="1.5"></path><path d="M1157.79 667.86L1270.75 643.12" stroke="rgba(202, 213, 226, 1)" stroke-width="1.5"></path><path d="M1157.79 667.86L1296.48 524.93" stroke="rgba(202, 213, 226, 1)" stroke-width="1.5"></path><path d="M1157.79 667.86L940.62 638.15" stroke="rgba(202, 213, 226, 1)" stroke-width="1.5"></path><path d="M1157.79 667.86L967.79 490.51" stroke="rgba(202, 213, 226, 1)" stroke-width="1.5"></path><path d="M1292.81 94.15L1292.81 94.15" stroke="rgba(202, 213, 226, 1)" stroke-width="1.5"></path><path d="M1292.81 94.15L1458.57 109.77" stroke="rgba(202, 213, 226, 1)" stroke-width="1.5"></path><path d="M1292.81 94.15L1264.64 258.74" stroke="rgba(202, 213, 226, 1)" stroke-width="1.5"></path><path d="M1292.81 94.15L1427.7 252.59" stroke="rgba(202, 213, 226, 1)" stroke-width="1.5"></path><path d="M1264.64 258.74L1264.64 258.74" stroke="rgba(202, 213, 226, 1)" stroke-width="1.5"></path><path d="M1264.64 258.74L1258.06 353.5" stroke="rgba(202, 213, 226, 1)" stroke-width="1.5"></path><path d="M1264.64 258.74L1427.7 252.59" stroke="rgba(202, 213, 226, 1)" stroke-width="1.5"></path><path d="M1258.06 353.5L1258.06 353.5" stroke="rgba(202, 213, 226, 1)" stroke-width="1.5"></path><path d="M1296.48 524.93L1296.48 524.93" stroke="rgba(202, 213, 226, 1)" stroke-width="1.5"></path><path d="M1296.48 524.93L1270.75 643.12" stroke="rgba(202, 213, 226, 1)" stroke-width="1.5"></path><path d="M1296.48 524.93L1449.24 532.64" stroke="rgba(202, 213, 226, 1)" stroke-width="1.5"></path><path d="M1270.75 643.12L1270.75 643.12" stroke="rgba(202, 213, 226, 1)" stroke-width="1.5"></path><path d="M1270.75 643.12L1111.18 515.65" stroke="rgba(202, 213, 226, 1)" stroke-width="1.5"></path><path d="M1270.75 643.12L1449.24 532.64" stroke="rgba(202, 213, 226, 1)" stroke-width="1.5"></path><path d="M1458.3 -101.28L1458.3 -101.28" stroke="rgba(202, 213, 226, 1)" stroke-width="1.5"></path><path d="M1458.3 -101.28L1458.57 109.77" stroke="rgba(202, 213, 226, 1)" stroke-width="1.5"></path><path d="M1458.3 -101.28L1587.72 101.75" stroke="rgba(202, 213, 226, 1)" stroke-width="1.5"></path><path d="M1458.3 -101.28L1292.81 94.15" stroke="rgba(202, 213, 226, 1)" stroke-width="1.5"></path><path d="M1458.3 -101.28L1593.95 198.98" stroke="rgba(202, 213, 226, 1)" stroke-width="1.5"></path><path d="M1458.57 109.77L1458.57 109.77" stroke="rgba(202, 213, 226, 1)" stroke-width="1.5"></path><path d="M1458.57 109.77L1587.72 101.75" stroke="rgba(202, 213, 226, 1)" stroke-width="1.5"></path><path d="M1458.57 109.77L1427.7 252.59" stroke="rgba(202, 213, 226, 1)" stroke-width="1.5"></path><path d="M1427.7 252.59L1427.7 252.59" stroke="rgba(202, 213, 226, 1)" stroke-width="1.5"></path><path d="M1427.7 252.59L1396.73 356.87" stroke="rgba(202, 213, 226, 1)" stroke-width="1.5"></path><path d="M1396.73 356.87L1396.73 356.87" stroke="rgba(202, 213, 226, 1)" stroke-width="1.5"></path><path d="M1396.73 356.87L1258.06 353.5" stroke="rgba(202, 213, 226, 1)" stroke-width="1.5"></path><path d="M1449.24 532.64L1449.24 532.64" stroke="rgba(202, 213, 226, 1)" stroke-width="1.5"></path><path d="M1449.24 532.64L1396.73 356.87" stroke="rgba(202, 213, 226, 1)" stroke-width="1.5"></path><path d="M1587.72 101.75L1587.72 101.75" stroke="rgba(202, 213, 226, 1)" stroke-width="1.5"></path><path d="M1587.72 101.75L1593.95 198.98" stroke="rgba(202, 213, 226, 1)" stroke-width="1.5"></path><path d="M1593.95 198.98L1593.95 198.98" stroke="rgba(202, 213, 226, 1)" stroke-width="1.5"></path><path d="M1593.95 198.98L1596.19 346.55" stroke="rgba(202, 213, 226, 1)" stroke-width="1.5"></path><path d="M1593.95 198.98L1458.57 109.77" stroke="rgba(202, 213, 226, 1)" stroke-width="1.5"></path><path d="M1596.19 346.55L1596.19 346.55" stroke="rgba(202, 213, 226, 1)" stroke-width="1.5"></path><path d="M1596.19 346.55L1427.7 252.59" stroke="rgba(202, 213, 226, 1)" stroke-width="1.5"></path><path d="M1575.58 712.26L1575.58 712.26" stroke="rgba(202, 213, 226, 1)" stroke-width="1.5"></path><path d="M1575.58 712.26L1449.24 532.64" stroke="rgba(202, 213, 226, 1)" stroke-width="1.5"></path><path d="M1575.58 712.26L1270.75 643.12" stroke="rgba(202, 213, 226, 1)" stroke-width="1.5"></path><circle r="5" cx="-41.96" cy="372.21" fill="rgba(202, 213, 226, 1)"></circle><circle r="5" cx="-94.01" cy="553.65" fill="rgba(202, 213, 226, 1)"></circle><circle r="5" cx="-52.81" cy="671.53" fill="rgba(202, 213, 226, 1)"></circle><circle r="5" cx="46.07" cy="378.17" fill="rgba(202, 213, 226, 1)"></circle><circle r="5" cx="69.52" cy="522.27" fill="rgba(202, 213, 226, 1)"></circle><circle r="5" cx="68.3" cy="678.66" fill="rgba(202, 213, 226, 1)"></circle><circle r="5" cx="237.3" cy="351.08" fill="rgba(202, 213, 226, 1)"></circle><circle r="5" cx="189.84" cy="679.27" fill="rgba(202, 213, 226, 1)"></circle><circle r="5" cx="404.68" cy="364.62" fill="rgba(202, 213, 226, 1)"></circle><circle r="5" cx="395.22" cy="544.25" fill="rgba(202, 213, 226, 1)"></circle><circle r="5" cx="348.86" cy="663.94" fill="rgba(202, 213, 226, 1)"></circle><circle r="5" cx="501.92" cy="357.92" fill="rgba(202, 213, 226, 1)"></circle><circle r="5" cx="494.22" cy="534.37" fill="rgba(202, 213, 226, 1)"></circle><circle r="5" cx="644.04" cy="254.11" fill="rgba(202, 213, 226, 1)"></circle><circle r="5" cx="699.92" cy="373.21" fill="rgba(202, 213, 226, 1)"></circle><circle r="5" cx="678.6" cy="528.83" fill="rgba(202, 213, 226, 1)"></circle><circle r="5" cx="694.9" cy="691.03" fill="rgba(202, 213, 226, 1)"></circle><circle r="5" cx="850.26" cy="69.03" fill="rgba(202, 213, 226, 1)"></circle><circle r="5" cx="817.18" cy="225.97" fill="rgba(202, 213, 226, 1)"></circle><circle r="5" cx="799.42" cy="367.04" fill="rgba(202, 213, 226, 1)"></circle><circle r="5" cx="813.92" cy="693.62" fill="rgba(202, 213, 226, 1)"></circle><circle r="5" cx="954.93" cy="-48.52" fill="rgba(202, 213, 226, 1)"></circle><circle r="5" cx="999.92" cy="55.28" fill="rgba(202, 213, 226, 1)"></circle><circle r="5" cx="974.22" cy="216.17" fill="rgba(202, 213, 226, 1)"></circle><circle r="5" cx="990.4" cy="353.33" fill="rgba(202, 213, 226, 1)"></circle><circle r="5" cx="967.79" cy="490.51" fill="rgba(202, 213, 226, 1)"></circle><circle r="5" cx="940.62" cy="638.15" fill="rgba(202, 213, 226, 1)"></circle><circle r="5" cx="1121.31" cy="-81.8" fill="rgba(202, 213, 226, 1)"></circle><circle r="5" cx="1108.59" cy="74.91" fill="rgba(202, 213, 226, 1)"></circle><circle r="5" cx="1141.5" cy="205.32" fill="rgba(202, 213, 226, 1)"></circle><circle r="5" cx="1128.38" cy="347.27" fill="rgba(202, 213, 226, 1)"></circle><circle r="5" cx="1111.18" cy="515.65" fill="rgba(202, 213, 226, 1)"></circle><circle r="5" cx="1157.79" cy="667.86" fill="rgba(202, 213, 226, 1)"></circle><circle r="5" cx="1292.81" cy="94.15" fill="rgba(202, 213, 226, 1)"></circle><circle r="5" cx="1264.64" cy="258.74" fill="rgba(202, 213, 226, 1)"></circle><circle r="5" cx="1258.06" cy="353.5" fill="rgba(202, 213, 226, 1)"></circle><circle r="5" cx="1296.48" cy="524.93" fill="rgba(202, 213, 226, 1)"></circle><circle r="5" cx="1270.75" cy="643.12" fill="rgba(202, 213, 226, 1)"></circle><circle r="5" cx="1458.3" cy="-101.28" fill="rgba(202, 213, 226, 1)"></circle><circle r="5" cx="1458.57" cy="109.77" fill="rgba(202, 213, 226, 1)"></circle><circle r="5" cx="1427.7" cy="252.59" fill="rgba(202, 213, 226, 1)"></circle><circle r="5" cx="1396.73" cy="356.87" fill="rgba(202, 213, 226, 1)"></circle><circle r="5" cx="1449.24" cy="532.64" fill="rgba(202, 213, 226, 1)"></circle><circle r="5" cx="1587.72" cy="101.75" fill="rgba(202, 213, 226, 1)"></circle><circle r="5" cx="1593.95" cy="198.98" fill="rgba(202, 213, 226, 1)"></circle><circle r="5" cx="1596.19" cy="346.55" fill="rgba(202, 213, 226, 1)"></circle><circle r="5" cx="1575.58" cy="712.26" fill="rgba(202, 213, 226, 1)"></circle><path d="M100.23 531.74L100.23 531.74" stroke="hsl(219.89999999999998, 67.7%, 79.5%)" stroke-width="1.5"></path><path d="M100.23 531.74L241.99 510.39" stroke="hsl(219.89999999999998, 67.7%, 79.5%)" stroke-width="1.5"></path><path d="M100.23 531.74L234.27 659.17" stroke="hsl(219.89999999999998, 67.7%, 79.5%)" stroke-width="1.5"></path><path d="M100.23 531.74L-99 532.78" stroke="hsl(219.89999999999998, 67.7%, 79.5%)" stroke-width="1.5"></path><path d="M100.23 531.74L-87.63 644.69" stroke="hsl(219.89999999999998, 67.7%, 79.5%)" stroke-width="1.5"></path><path d="M100.23 531.74L408.92 537.02" stroke="hsl(219.89999999999998, 67.7%, 79.5%)" stroke-width="1.5"></path><path d="M510.71 504.3L510.71 504.3" stroke="hsl(219.89999999999998, 67.7%, 79.5%)" stroke-width="1.5"></path><path d="M510.71 504.3L408.92 537.02" stroke="hsl(219.89999999999998, 67.7%, 79.5%)" stroke-width="1.5"></path><path d="M510.71 504.3L652.53 503.11" stroke="hsl(219.89999999999998, 67.7%, 79.5%)" stroke-width="1.5"></path><path d="M501.92 663.27L501.92 663.27" stroke="hsl(219.89999999999998, 67.7%, 79.5%)" stroke-width="1.5"></path><path d="M501.92 663.27L408.92 537.02" stroke="hsl(219.89999999999998, 67.7%, 79.5%)" stroke-width="1.5"></path><path d="M501.92 663.27L510.71 504.3" stroke="hsl(219.89999999999998, 67.7%, 79.5%)" stroke-width="1.5"></path><path d="M681.66 405.18L681.66 405.18" stroke="hsl(219.89999999999998, 67.7%, 79.5%)" stroke-width="1.5"></path><path d="M681.66 405.18L652.53 503.11" stroke="hsl(219.89999999999998, 67.7%, 79.5%)" stroke-width="1.5"></path><path d="M681.66 405.18L831.51 389.06" stroke="hsl(219.89999999999998, 67.7%, 79.5%)" stroke-width="1.5"></path><path d="M681.66 405.18L510.71 504.3" stroke="hsl(219.89999999999998, 67.7%, 79.5%)" stroke-width="1.5"></path><path d="M681.66 405.18L854.26 559.34" stroke="hsl(219.89999999999998, 67.7%, 79.5%)" stroke-width="1.5"></path><path d="M681.66 405.18L667.15 647.63" stroke="hsl(219.89999999999998, 67.7%, 79.5%)" stroke-width="1.5"></path><path d="M681.66 405.18L957.34 400.37" stroke="hsl(219.89999999999998, 67.7%, 79.5%)" stroke-width="1.5"></path><path d="M957.34 400.37L957.34 400.37" stroke="hsl(219.89999999999998, 67.7%, 79.5%)" stroke-width="1.5"></path><path d="M957.34 400.37L831.51 389.06" stroke="hsl(219.89999999999998, 67.7%, 79.5%)" stroke-width="1.5"></path><path d="M957.34 400.37L976.21 252.05" stroke="hsl(219.89999999999998, 67.7%, 79.5%)" stroke-width="1.5"></path><path d="M1104.98 373.93L1104.98 373.93" stroke="hsl(219.89999999999998, 67.7%, 79.5%)" stroke-width="1.5"></path><path d="M1104.98 373.93L1125.43 238.83" stroke="hsl(219.89999999999998, 67.7%, 79.5%)" stroke-width="1.5"></path><path d="M1104.98 373.93L957.34 400.37" stroke="hsl(219.89999999999998, 67.7%, 79.5%)" stroke-width="1.5"></path><path d="M1104.98 373.93L976.21 252.05" stroke="hsl(219.89999999999998, 67.7%, 79.5%)" stroke-width="1.5"></path><path d="M1104.98 373.93L1149.53 558.37" stroke="hsl(219.89999999999998, 67.7%, 79.5%)" stroke-width="1.5"></path><path d="M1104.98 373.93L1310.03 359.55" stroke="hsl(219.89999999999998, 67.7%, 79.5%)" stroke-width="1.5"></path><path d="M1104.98 373.93L989.72 560.5" stroke="hsl(219.89999999999998, 67.7%, 79.5%)" stroke-width="1.5"></path><path d="M1295.05 98.37L1295.05 98.37" stroke="hsl(219.89999999999998, 67.7%, 79.5%)" stroke-width="1.5"></path><path d="M1295.05 98.37L1305.25 243.11" stroke="hsl(219.89999999999998, 67.7%, 79.5%)" stroke-width="1.5"></path><path d="M1295.05 98.37L1416.9 256.11" stroke="hsl(219.89999999999998, 67.7%, 79.5%)" stroke-width="1.5"></path><path d="M1295.05 98.37L1271.26 -107.48" stroke="hsl(219.89999999999998, 67.7%, 79.5%)" stroke-width="1.5"></path><path d="M1295.05 98.37L1125.43 238.83" stroke="hsl(219.89999999999998, 67.7%, 79.5%)" stroke-width="1.5"></path><path d="M1295.05 98.37L1443.28 -101.13" stroke="hsl(219.89999999999998, 67.7%, 79.5%)" stroke-width="1.5"></path><path d="M-99 532.78L-99 532.78" stroke="hsl(219.89999999999998, 67.7%, 79.5%)" stroke-width="1.5"></path><path d="M-99 532.78L-87.63 644.69" stroke="hsl(219.89999999999998, 67.7%, 79.5%)" stroke-width="1.5"></path><path d="M-99 532.78L241.99 510.39" stroke="hsl(219.89999999999998, 67.7%, 79.5%)" stroke-width="1.5"></path><path d="M-99 532.78L234.27 659.17" stroke="hsl(219.89999999999998, 67.7%, 79.5%)" stroke-width="1.5"></path><path d="M-87.63 644.69L-87.63 644.69" stroke="hsl(219.89999999999998, 67.7%, 79.5%)" stroke-width="1.5"></path><path d="M241.99 510.39L241.99 510.39" stroke="hsl(219.89999999999998, 67.7%, 79.5%)" stroke-width="1.5"></path><path d="M241.99 510.39L234.27 659.17" stroke="hsl(219.89999999999998, 67.7%, 79.5%)" stroke-width="1.5"></path><path d="M241.99 510.39L408.92 537.02" stroke="hsl(219.89999999999998, 67.7%, 79.5%)" stroke-width="1.5"></path><path d="M234.27 659.17L234.27 659.17" stroke="hsl(219.89999999999998, 67.7%, 79.5%)" stroke-width="1.5"></path><path d="M408.92 537.02L408.92 537.02" stroke="hsl(219.89999999999998, 67.7%, 79.5%)" stroke-width="1.5"></path><path d="M408.92 537.02L234.27 659.17" stroke="hsl(219.89999999999998, 67.7%, 79.5%)" stroke-width="1.5"></path><path d="M652.53 503.11L652.53 503.11" stroke="hsl(219.89999999999998, 67.7%, 79.5%)" stroke-width="1.5"></path><path d="M667.15 647.63L667.15 647.63" stroke="hsl(219.89999999999998, 67.7%, 79.5%)" stroke-width="1.5"></path><path d="M667.15 647.63L808.89 655.04" stroke="hsl(219.89999999999998, 67.7%, 79.5%)" stroke-width="1.5"></path><path d="M667.15 647.63L652.53 503.11" stroke="hsl(219.89999999999998, 67.7%, 79.5%)" stroke-width="1.5"></path><path d="M667.15 647.63L501.92 663.27" stroke="hsl(219.89999999999998, 67.7%, 79.5%)" stroke-width="1.5"></path><path d="M667.15 647.63L854.26 559.34" stroke="hsl(219.89999999999998, 67.7%, 79.5%)" stroke-width="1.5"></path><path d="M831.51 389.06L831.51 389.06" stroke="hsl(219.89999999999998, 67.7%, 79.5%)" stroke-width="1.5"></path><path d="M854.26 559.34L854.26 559.34" stroke="hsl(219.89999999999998, 67.7%, 79.5%)" stroke-width="1.5"></path><path d="M854.26 559.34L808.89 655.04" stroke="hsl(219.89999999999998, 67.7%, 79.5%)" stroke-width="1.5"></path><path d="M854.26 559.34L989.72 560.5" stroke="hsl(219.89999999999998, 67.7%, 79.5%)" stroke-width="1.5"></path><path d="M854.26 559.34L831.51 389.06" stroke="hsl(219.89999999999998, 67.7%, 79.5%)" stroke-width="1.5"></path><path d="M854.26 559.34L986.02 674.8" stroke="hsl(219.89999999999998, 67.7%, 79.5%)" stroke-width="1.5"></path><path d="M854.26 559.34L957.34 400.37" stroke="hsl(219.89999999999998, 67.7%, 79.5%)" stroke-width="1.5"></path><path d="M808.89 655.04L808.89 655.04" stroke="hsl(219.89999999999998, 67.7%, 79.5%)" stroke-width="1.5"></path><path d="M808.89 655.04L986.02 674.8" stroke="hsl(219.89999999999998, 67.7%, 79.5%)" stroke-width="1.5"></path><path d="M808.89 655.04L989.72 560.5" stroke="hsl(219.89999999999998, 67.7%, 79.5%)" stroke-width="1.5"></path><path d="M808.89 655.04L652.53 503.11" stroke="hsl(219.89999999999998, 67.7%, 79.5%)" stroke-width="1.5"></path><path d="M976.21 252.05L976.21 252.05" stroke="hsl(219.89999999999998, 67.7%, 79.5%)" stroke-width="1.5"></path><path d="M976.21 252.05L1125.43 238.83" stroke="hsl(219.89999999999998, 67.7%, 79.5%)" stroke-width="1.5"></path><path d="M976.21 252.05L831.51 389.06" stroke="hsl(219.89999999999998, 67.7%, 79.5%)" stroke-width="1.5"></path><path d="M976.21 252.05L989.72 560.5" stroke="hsl(219.89999999999998, 67.7%, 79.5%)" stroke-width="1.5"></path><path d="M989.72 560.5L989.72 560.5" stroke="hsl(219.89999999999998, 67.7%, 79.5%)" stroke-width="1.5"></path><path d="M989.72 560.5L986.02 674.8" stroke="hsl(219.89999999999998, 67.7%, 79.5%)" stroke-width="1.5"></path><path d="M986.02 674.8L986.02 674.8" stroke="hsl(219.89999999999998, 67.7%, 79.5%)" stroke-width="1.5"></path><path d="M986.02 674.8L1134.36 683" stroke="hsl(219.89999999999998, 67.7%, 79.5%)" stroke-width="1.5"></path><path d="M986.02 674.8L1149.53 558.37" stroke="hsl(219.89999999999998, 67.7%, 79.5%)" stroke-width="1.5"></path><path d="M1125.43 238.83L1125.43 238.83" stroke="hsl(219.89999999999998, 67.7%, 79.5%)" stroke-width="1.5"></path><path d="M1149.53 558.37L1149.53 558.37" stroke="hsl(219.89999999999998, 67.7%, 79.5%)" stroke-width="1.5"></path><path d="M1149.53 558.37L1270.42 552.4" stroke="hsl(219.89999999999998, 67.7%, 79.5%)" stroke-width="1.5"></path><path d="M1149.53 558.37L1134.36 683" stroke="hsl(219.89999999999998, 67.7%, 79.5%)" stroke-width="1.5"></path><path d="M1149.53 558.37L989.72 560.5" stroke="hsl(219.89999999999998, 67.7%, 79.5%)" stroke-width="1.5"></path><path d="M1134.36 683L1134.36 683" stroke="hsl(219.89999999999998, 67.7%, 79.5%)" stroke-width="1.5"></path><path d="M1134.36 683L1282.85 654.82" stroke="hsl(219.89999999999998, 67.7%, 79.5%)" stroke-width="1.5"></path><path d="M1134.36 683L1270.42 552.4" stroke="hsl(219.89999999999998, 67.7%, 79.5%)" stroke-width="1.5"></path><path d="M1271.26 -107.48L1271.26 -107.48" stroke="hsl(219.89999999999998, 67.7%, 79.5%)" stroke-width="1.5"></path><path d="M1271.26 -107.48L1443.28 -101.13" stroke="hsl(219.89999999999998, 67.7%, 79.5%)" stroke-width="1.5"></path><path d="M1271.26 -107.48L1575.48 -78.92" stroke="hsl(219.89999999999998, 67.7%, 79.5%)" stroke-width="1.5"></path><path d="M1271.26 -107.48L1305.25 243.11" stroke="hsl(219.89999999999998, 67.7%, 79.5%)" stroke-width="1.5"></path><path d="M1271.26 -107.48L1125.43 238.83" stroke="hsl(219.89999999999998, 67.7%, 79.5%)" stroke-width="1.5"></path><path d="M1271.26 -107.48L1589.41 97.81" stroke="hsl(219.89999999999998, 67.7%, 79.5%)" stroke-width="1.5"></path><path d="M1305.25 243.11L1305.25 243.11" stroke="hsl(219.89999999999998, 67.7%, 79.5%)" stroke-width="1.5"></path><path d="M1305.25 243.11L1416.9 256.11" stroke="hsl(219.89999999999998, 67.7%, 79.5%)" stroke-width="1.5"></path><path d="M1305.25 243.11L1310.03 359.55" stroke="hsl(219.89999999999998, 67.7%, 79.5%)" stroke-width="1.5"></path><path d="M1305.25 243.11L1125.43 238.83" stroke="hsl(219.89999999999998, 67.7%, 79.5%)" stroke-width="1.5"></path><path d="M1305.25 243.11L1461.95 396.8" stroke="hsl(219.89999999999998, 67.7%, 79.5%)" stroke-width="1.5"></path><path d="M1310.03 359.55L1310.03 359.55" stroke="hsl(219.89999999999998, 67.7%, 79.5%)" stroke-width="1.5"></path><path d="M1310.03 359.55L1416.9 256.11" stroke="hsl(219.89999999999998, 67.7%, 79.5%)" stroke-width="1.5"></path><path d="M1310.03 359.55L1461.95 396.8" stroke="hsl(219.89999999999998, 67.7%, 79.5%)" stroke-width="1.5"></path><path d="M1310.03 359.55L1270.42 552.4" stroke="hsl(219.89999999999998, 67.7%, 79.5%)" stroke-width="1.5"></path><path d="M1310.03 359.55L1461.37 512.03" stroke="hsl(219.89999999999998, 67.7%, 79.5%)" stroke-width="1.5"></path><path d="M1270.42 552.4L1270.42 552.4" stroke="hsl(219.89999999999998, 67.7%, 79.5%)" stroke-width="1.5"></path><path d="M1270.42 552.4L1282.85 654.82" stroke="hsl(219.89999999999998, 67.7%, 79.5%)" stroke-width="1.5"></path><path d="M1282.85 654.82L1282.85 654.82" stroke="hsl(219.89999999999998, 67.7%, 79.5%)" stroke-width="1.5"></path><path d="M1282.85 654.82L1446.28 661.67" stroke="hsl(219.89999999999998, 67.7%, 79.5%)" stroke-width="1.5"></path><path d="M1443.28 -101.13L1443.28 -101.13" stroke="hsl(219.89999999999998, 67.7%, 79.5%)" stroke-width="1.5"></path><path d="M1443.28 -101.13L1575.48 -78.92" stroke="hsl(219.89999999999998, 67.7%, 79.5%)" stroke-width="1.5"></path><path d="M1416.9 256.11L1416.9 256.11" stroke="hsl(219.89999999999998, 67.7%, 79.5%)" stroke-width="1.5"></path><path d="M1416.9 256.11L1461.95 396.8" stroke="hsl(219.89999999999998, 67.7%, 79.5%)" stroke-width="1.5"></path><path d="M1461.95 396.8L1461.95 396.8" stroke="hsl(219.89999999999998, 67.7%, 79.5%)" stroke-width="1.5"></path><path d="M1461.95 396.8L1461.37 512.03" stroke="hsl(219.89999999999998, 67.7%, 79.5%)" stroke-width="1.5"></path><path d="M1461.95 396.8L1605.51 410.09" stroke="hsl(219.89999999999998, 67.7%, 79.5%)" stroke-width="1.5"></path><path d="M1461.95 396.8L1569.45 529.17" stroke="hsl(219.89999999999998, 67.7%, 79.5%)" stroke-width="1.5"></path><path d="M1461.37 512.03L1461.37 512.03" stroke="hsl(219.89999999999998, 67.7%, 79.5%)" stroke-width="1.5"></path><path d="M1461.37 512.03L1569.45 529.17" stroke="hsl(219.89999999999998, 67.7%, 79.5%)" stroke-width="1.5"></path><path d="M1461.37 512.03L1446.28 661.67" stroke="hsl(219.89999999999998, 67.7%, 79.5%)" stroke-width="1.5"></path><path d="M1461.37 512.03L1605.51 410.09" stroke="hsl(219.89999999999998, 67.7%, 79.5%)" stroke-width="1.5"></path><path d="M1446.28 661.67L1446.28 661.67" stroke="hsl(219.89999999999998, 67.7%, 79.5%)" stroke-width="1.5"></path><path d="M1446.28 661.67L1540.34 689.27" stroke="hsl(219.89999999999998, 67.7%, 79.5%)" stroke-width="1.5"></path><path d="M1446.28 661.67L1569.45 529.17" stroke="hsl(219.89999999999998, 67.7%, 79.5%)" stroke-width="1.5"></path><path d="M1446.28 661.67L1270.42 552.4" stroke="hsl(219.89999999999998, 67.7%, 79.5%)" stroke-width="1.5"></path><path d="M1446.28 661.67L1461.95 396.8" stroke="hsl(219.89999999999998, 67.7%, 79.5%)" stroke-width="1.5"></path><path d="M1575.48 -78.92L1575.48 -78.92" stroke="hsl(219.89999999999998, 67.7%, 79.5%)" stroke-width="1.5"></path><path d="M1575.48 -78.92L1589.41 97.81" stroke="hsl(219.89999999999998, 67.7%, 79.5%)" stroke-width="1.5"></path><path d="M1575.48 -78.92L1295.05 98.37" stroke="hsl(219.89999999999998, 67.7%, 79.5%)" stroke-width="1.5"></path><path d="M1575.48 -78.92L1416.9 256.11" stroke="hsl(219.89999999999998, 67.7%, 79.5%)" stroke-width="1.5"></path><path d="M1575.48 -78.92L1305.25 243.11" stroke="hsl(219.89999999999998, 67.7%, 79.5%)" stroke-width="1.5"></path><path d="M1589.41 97.81L1589.41 97.81" stroke="hsl(219.89999999999998, 67.7%, 79.5%)" stroke-width="1.5"></path><path d="M1589.41 97.81L1416.9 256.11" stroke="hsl(219.89999999999998, 67.7%, 79.5%)" stroke-width="1.5"></path><path d="M1589.41 97.81L1443.28 -101.13" stroke="hsl(219.89999999999998, 67.7%, 79.5%)" stroke-width="1.5"></path><path d="M1605.51 410.09L1605.51 410.09" stroke="hsl(219.89999999999998, 67.7%, 79.5%)" stroke-width="1.5"></path><path d="M1605.51 410.09L1569.45 529.17" stroke="hsl(219.89999999999998, 67.7%, 79.5%)" stroke-width="1.5"></path><path d="M1605.51 410.09L1416.9 256.11" stroke="hsl(219.89999999999998, 67.7%, 79.5%)" stroke-width="1.5"></path><path d="M1605.51 410.09L1540.34 689.27" stroke="hsl(219.89999999999998, 67.7%, 79.5%)" stroke-width="1.5"></path><path d="M1569.45 529.17L1569.45 529.17" stroke="hsl(219.89999999999998, 67.7%, 79.5%)" stroke-width="1.5"></path><path d="M1540.34 689.27L1540.34 689.27" stroke="hsl(219.89999999999998, 67.7%, 79.5%)" stroke-width="1.5"></path><circle r="25" cx="100.23" cy="531.74" fill="url(&quot;#SvgjsRadialGradient1007&quot;)"></circle><circle r="25" cx="510.71" cy="504.3" fill="url(&quot;#SvgjsRadialGradient1007&quot;)"></circle><circle r="25" cx="501.92" cy="663.27" fill="url(&quot;#SvgjsRadialGradient1007&quot;)"></circle><circle r="25" cx="681.66" cy="405.18" fill="url(&quot;#SvgjsRadialGradient1007&quot;)"></circle><circle r="25" cx="957.34" cy="400.37" fill="url(&quot;#SvgjsRadialGradient1007&quot;)"></circle><circle r="25" cx="1104.98" cy="373.93" fill="url(&quot;#SvgjsRadialGradient1007&quot;)"></circle><circle r="25" cx="1295.05" cy="98.37" fill="url(&quot;#SvgjsRadialGradient1007&quot;)"></circle><circle r="5" cx="-99" cy="532.78" fill="#acc3ef"></circle><circle r="5" cx="-87.63" cy="644.69" fill="#acc3ef"></circle><circle r="5" cx="241.99" cy="510.39" fill="#acc3ef"></circle><circle r="5" cx="234.27" cy="659.17" fill="#acc3ef"></circle><circle r="5" cx="408.92" cy="537.02" fill="#acc3ef"></circle><circle r="5" cx="652.53" cy="503.11" fill="#acc3ef"></circle><circle r="5" cx="667.15" cy="647.63" fill="#acc3ef"></circle><circle r="5" cx="831.51" cy="389.06" fill="#acc3ef"></circle><circle r="5" cx="854.26" cy="559.34" fill="#acc3ef"></circle><circle r="5" cx="808.89" cy="655.04" fill="#acc3ef"></circle><circle r="5" cx="976.21" cy="252.05" fill="#acc3ef"></circle><circle r="5" cx="989.72" cy="560.5" fill="#acc3ef"></circle><circle r="5" cx="986.02" cy="674.8" fill="#acc3ef"></circle><circle r="5" cx="1125.43" cy="238.83" fill="#acc3ef"></circle><circle r="5" cx="1149.53" cy="558.37" fill="#acc3ef"></circle><circle r="5" cx="1134.36" cy="683" fill="#acc3ef"></circle><circle r="5" cx="1271.26" cy="-107.48" fill="#acc3ef"></circle><circle r="5" cx="1305.25" cy="243.11" fill="#acc3ef"></circle><circle r="5" cx="1310.03" cy="359.55" fill="#acc3ef"></circle><circle r="5" cx="1270.42" cy="552.4" fill="#acc3ef"></circle><circle r="5" cx="1282.85" cy="654.82" fill="#acc3ef"></circle><circle r="5" cx="1443.28" cy="-101.13" fill="#acc3ef"></circle><circle r="5" cx="1416.9" cy="256.11" fill="#acc3ef"></circle><circle r="5" cx="1461.95" cy="396.8" fill="#acc3ef"></circle><circle r="5" cx="1461.37" cy="512.03" fill="#acc3ef"></circle><circle r="5" cx="1446.28" cy="661.67" fill="#acc3ef"></circle><circle r="5" cx="1575.48" cy="-78.92" fill="#acc3ef"></circle><circle r="5" cx="1589.41" cy="97.81" fill="#acc3ef"></circle><circle r="5" cx="1605.51" cy="410.09" fill="#acc3ef"></circle><circle r="5" cx="1569.45" cy="529.17" fill="#acc3ef"></circle><circle r="5" cx="1540.34" cy="689.27" fill="#acc3ef"></circle></g><defs><mask id="SvgjsMask1006"><rect width="1440" height="560" fill="#ffffff"></rect></mask><radialGradient id="SvgjsRadialGradient1007"><stop stop-color="#ffffff" offset="0.1"></stop><stop stop-color="rgba(89, 134, 223, 1)" offset="0.2"></stop><stop stop-color="rgba(89, 134, 223, 0)" offset="1"></stop></radialGradient></defs></svg>